<?xml version="1.0" standalone="no"?>
<!DOCTYPE svg PUBLIC "-//W3C//DTD SVG 20010904//EN"
 "http://www.w3.org/TR/2001/REC-SVG-20010904/DTD/svg10.dtd">
<svg version="1.0" xmlns="http://www.w3.org/2000/svg"
 width="270.000000pt" height="270.000000pt" viewBox="0 0 270.000000 270.000000"
 preserveAspectRatio="xMidYMid meet">
<metadata>
Created by potrace 1.11, written by Peter Selinger 2001-2013
</metadata>
<g transform="translate(0.000000,270.000000) scale(0.100000,-0.100000)"
fill="#000000" stroke="none">
<path d="M478 1570 l-168 -319 0 -91 0 -90 250 0 249 0 3 -112 3 -113 123 -3
122 -3 0 115 0 115 73 3 72 3 3 97 3 97 -73 3 -73 3 -3 113 -3 112 -124 0
-125 0 0 -115 0 -116 -110 2 c-60 1 -110 3 -110 5 0 2 70 141 156 309 l156
305 -129 0 -128 0 -167 -320z"/>
<path d="M1332 1368 l3 -523 270 1 c305 1 359 9 475 70 167 88 270 263 270
459 0 69 -34 198 -67 254 -62 105 -159 182 -289 228 -78 27 -82 28 -372 31
l-292 4 2 -524z"/>
</g>
</svg>
